# xmcd CD database file
#
# Track frame offsets:
#	150
#	15474
#	29891
#	51334
#	67005
#	86030
#	102760
#	119044
#	134746
#	155226
#	170673
#	188772
#
# Disc length: 2790 seconds
#
# Revision: 1
# Processed by: cddbd v1.5.2PL0 Copyright (c) Steve Scherf et al.
# Submitted via: CDex 1.79
#
DISCID=b70ae40c
DTITLE=Cannibal Corpse - Red Before Black
DYEAR=2017
DGENRE=Death Metal
TTITLE0=Only One Will Die
TTITLE1=Red Before Black
TTITLE2=Code Of The Slashers
TTITLE3=Shedding My Human Skin
TTITLE4=Remaimed
TTITLE5=Firestorm Vengeance
TTITLE6=Heads Shoveled Off
TTITLE7=Corpus Delicti
TTITLE8=Scavenger Consuming Death
TTITLE9=In The Midst Of Ruin
TTITLE10=Destroyed Without A Trace
TTITLE11=Hideous Ichor
EXTD=YEAR: 2017
EXTT0=
EXTT1=
EXTT2=
EXTT3=
EXTT4=
EXTT5=
EXTT6=
EXTT7=
EXTT8=
EXTT9=
EXTT10=
EXTT11=
PLAYORDER=
